<?xml version="1.0" encoding="utf-8"?>
<!-- Generator: Adobe Illustrator 16.0.0, SVG Export Plug-In . SVG Version: 6.00 Build 0)  -->
<!DOCTYPE svg PUBLIC "-//W3C//DTD SVG 1.1//EN" "http://www.w3.org/Graphics/SVG/1.1/DTD/svg11.dtd">
<svg version="1.1" id="Layer_1" xmlns="http://www.w3.org/2000/svg" xmlns:xlink="http://www.w3.org/1999/xlink" x="0px" y="0px"
	 width="287px" height="68.367px" viewBox="25.86 6.161 287 68.367" style="enable-background:new 25.86 6.161 287 68.367;"
	 xml:space="preserve">
<g>
	<path d="M30.094,65.14c-0.284-0.171-0.424-0.354-0.424-0.553c0-0.196,0.084-0.354,0.255-0.468c0.453-0.282,1.287-0.977,2.505-2.08
		c1.216-1.103,2.759-2.559,4.627-4.372l0.678-0.509l0.171-0.17c1.98-2.32,4.032-4.938,6.155-7.854
		c2.122-2.913,4.203-5.955,6.24-9.126c1.868-3.056,3.565-6.07,5.094-9.042c1.529-2.971,2.717-5.759,3.565-8.363
		c0.85-2.602,1.317-4.925,1.401-6.961c0.084-2.038-0.382-3.651-1.401-4.839l-0.679-0.849l-0.849-0.339
		c-1.019-0.396-2.25-0.453-3.694-0.169c-1.441,0.284-3,0.822-4.668,1.613c-1.669,0.793-3.396,1.812-5.179,3.056
		c-1.783,1.246-3.552,2.632-5.307,4.159c-1.867,1.642-3.581,3.354-5.136,5.138c-1.557,1.782-2.858,3.523-3.905,5.221
		c-1.048,1.698-1.797,3.298-2.25,4.797c-0.452,1.5-0.479,2.788-0.084,3.862c0.227,0.51,0.707,0.821,1.444,0.935
		c0.735,0.115,1.641,0,2.716-0.339c1.075-0.339,2.251-0.891,3.524-1.656c1.273-0.764,2.559-1.769,3.862-3.014
		c1.302-1.188,2.448-2.433,3.438-3.736c0.99-1.301,1.783-2.547,2.378-3.735c0.595-1.189,0.948-2.263,1.061-3.226
		c0.113-0.963-0.03-1.698-0.424-2.208c-0.171-0.339-0.057-0.622,0.339-0.849c0.282-0.283,0.509-0.226,0.679,0.17
		c0.452,0.793,0.58,1.77,0.382,2.929c-0.199,1.161-0.624,2.406-1.274,3.736c-0.651,1.33-1.486,2.661-2.504,3.99
		c-1.019,1.33-2.095,2.533-3.227,3.609c-1.133,1.076-2.392,2.052-3.778,2.929c-1.387,0.877-2.731,1.528-4.032,1.953
		c-1.303,0.425-2.462,0.566-3.481,0.425c-1.02-0.141-1.726-0.722-2.123-1.742c-0.453-1.244-0.438-2.687,0.043-4.33
		c0.481-1.641,1.273-3.354,2.377-5.136c1.104-1.783,2.448-3.581,4.033-5.392c1.584-1.811,3.282-3.48,5.094-5.008
		c1.754-1.584,3.636-3.056,5.646-4.416c2.008-1.358,3.948-2.461,5.816-3.311s3.621-1.387,5.264-1.613
		c1.641-0.226,3.028,0,4.161,0.68h0.169c1.584,1.188,2.448,2.929,2.589,5.221c0.141,2.292-0.212,4.882-1.061,7.77
		c-0.849,2.886-2.109,5.958-3.778,9.211c-1.67,3.255-3.467,6.439-5.391,9.55c-1.133,1.644-2.207,3.228-3.226,4.755
		c-1.02,1.528-2.038,2.944-3.057,4.245l-0.679,0.85l1.698-1.528c2.491-2.491,5.094-5.066,7.811-7.727
		c2.717-2.66,5.434-5.404,8.15-8.235c3.678-3.51,7.244-6.934,10.697-10.273c3.452-3.339,6.622-6.198,9.508-8.576
		c1.189-0.961,2.363-1.896,3.523-2.802c1.16-0.904,2.221-1.613,3.185-2.123c0.962-0.509,1.769-0.763,2.419-0.763
		s1.061,0.369,1.231,1.104c0.113,0.228,0.055,0.454-0.17,0.68c-0.284,0-0.466-0.027-0.552-0.085
		c-0.085-0.056-0.185-0.141-0.297-0.255c0-0.226-0.113-0.282-0.34-0.169c-0.169,0-0.381,0.015-0.636,0.042
		c-0.254,0.03-0.608,0.185-1.061,0.468c-0.965,0.452-1.968,1.088-3.015,1.909c-1.048,0.823-2.307,1.825-3.778,3.015
		c-2.831,2.321-5.942,5.093-9.339,8.319c-3.396,3.227-6.961,6.68-10.697,10.359c-2.094,2.037-4.16,4.09-6.198,6.155
		c-2.038,2.066-4.032,4.076-5.985,6.028c-1.953,1.951-3.808,3.834-5.561,5.646c-1.755,1.813-3.368,3.452-4.838,4.924l-1.529,1.189
		l-2.038,2.376c-1.188,1.359-2.321,2.521-3.396,3.481c-1.076,0.964-1.923,1.444-2.547,1.444L30.094,65.14L30.094,65.14z"/>
	<path d="M60.318,43.744c0.339-0.849,0.904-1.583,1.698-2.207c0.792-0.622,1.584-1.019,2.377-1.188
		c0.622-0.113,1.217-0.099,1.783,0.042c0.565,0.143,0.877,0.467,0.934,0.976c0.056,0.511-0.157,1.006-0.636,1.486
		c-0.481,0.482-1.076,0.921-1.782,1.316c-0.708,0.396-1.401,0.737-2.08,1.019c-0.68,0.284-1.133,0.454-1.359,0.51
		c0.282,0.794,0.876,1.388,1.783,1.783c0.903,0.396,1.952,0.509,3.141,0.339c2.15-0.282,4.273-0.892,6.367-1.824
		c2.094-0.936,3.906-1.912,5.434-2.93c0.339-0.282,0.622-0.282,0.85,0c0.225,0.283,0.169,0.566-0.17,0.849
		c-0.793,0.567-1.741,1.146-2.843,1.74c-1.105,0.596-2.265,1.134-3.481,1.613c-1.217,0.48-2.462,0.877-3.736,1.188
		c-1.273,0.311-2.505,0.467-3.693,0.467c-0.794,0-1.529-0.126-2.208-0.382c-0.68-0.256-1.26-0.607-1.741-1.061
		c-0.481-0.453-0.794-0.99-0.934-1.613C59.881,45.245,59.979,44.539,60.318,43.744z M65.923,41.367
		c-1.02-0.226-2.01,0.073-2.972,0.892c-0.962,0.822-1.585,1.685-1.868,2.591c0.227-0.112,0.595-0.297,1.104-0.552
		c0.51-0.255,1.046-0.537,1.613-0.849c0.565-0.31,1.062-0.65,1.486-1.019C65.709,42.061,65.923,41.708,65.923,41.367z"/>
	<path d="M69.911,59.366c-0.622-0.169-1.159-0.522-1.613-1.061c-0.453-0.537-0.594-1.202-0.425-1.994c0.114-0.85,0.582-1.6,1.4-2.25
		c0.822-0.65,1.798-1.231,2.929-1.741c1.134-0.51,2.363-0.977,3.694-1.401c1.329-0.424,2.56-0.833,3.693-1.23l1.358-0.339
		c0.34-0.792,0.607-1.5,0.807-2.122c0.198-0.623,0.382-1.259,0.552-1.912c0.169-0.649,0.353-1.344,0.551-2.08
		c0.198-0.733,0.467-1.64,0.807-2.716l-0.339,0.169c-0.849,0.681-1.77,1.374-2.759,2.08c-0.991,0.709-2.223,1.487-3.692,2.336
		c-0.397,0.228-0.68,0.17-0.849-0.17c-0.114-0.113-0.142-0.255-0.085-0.424c0.056-0.17,0.141-0.311,0.255-0.427
		c2.15-1.299,3.833-2.375,5.052-3.226c1.216-0.849,2.249-1.583,3.098-2.206c0.056-0.169,0.184-0.31,0.383-0.424
		c0.198-0.114,0.382-0.169,0.552-0.169c0.17,0,0.282,0.084,0.339,0.254c0.057,0.17-0.028,0.454-0.254,0.849
		c-0.679,2.038-1.188,3.779-1.528,5.223c-0.34,1.443-0.849,2.929-1.528,4.456h0.509c1.36-0.451,2.815-0.919,4.373-1.4
		c1.556-0.479,3.155-1.032,4.797-1.654c1.302-0.511,2.588-1.006,3.862-1.487c1.273-0.479,2.42-1.062,3.439-1.739
		c0-0.113,0.113-0.185,0.339-0.214c0.226-0.027,0.396,0.043,0.509,0.214c0.169,0.113,0.183,0.283,0.042,0.509
		c-0.142,0.227-0.27,0.34-0.382,0.34c-1.019,0.678-2.193,1.303-3.523,1.867c-1.33,0.567-2.589,1.076-3.778,1.528
		c-1.868,0.681-3.708,1.289-5.519,1.826c-1.812,0.538-3.481,1.06-5.009,1.571h-0.169c-0.737,1.641-1.613,3.07-2.631,4.288
		c-1.019,1.217-2.081,2.221-3.184,3.013c-1.104,0.794-2.193,1.36-3.269,1.699C71.638,59.537,70.705,59.594,69.911,59.366z
		 M80.439,50.537c-1.302,0.454-2.604,0.891-3.906,1.316c-1.303,0.424-2.491,0.891-3.565,1.4s-1.98,1.033-2.717,1.571
		c-0.735,0.539-1.131,1.091-1.189,1.656c-0.112,0.679,0.015,1.132,0.382,1.358c0.369,0.227,0.637,0.396,0.807,0.508
		c0.624,0.115,1.374,0.017,2.25-0.296c0.879-0.311,1.782-0.807,2.717-1.486c0.934-0.678,1.853-1.528,2.759-2.547
		C78.882,52.998,79.703,51.84,80.439,50.537z"/>
	<path d="M97.25,47.31c0.169-0.283,0.537-0.679,1.104-1.188c0.622-0.51,1.061-1.005,1.315-1.486c0.255-0.479,0.438-0.946,0.552-1.4
		c-0.553,0.397-1.093,0.735-1.618,1.019c-0.526,0.285-1.038,0.566-1.535,0.85c-0.333,0.17-0.597,0.085-0.795-0.255
		c-0.199-0.339-0.1-0.595,0.298-0.765c0.33-0.169,0.716-0.381,1.156-0.636c0.441-0.255,0.839-0.495,1.197-0.722
		s0.664-0.438,0.917-0.638c0.253-0.197,0.38-0.381,0.38-0.552v-0.17c0.113-0.282,0.282-0.438,0.51-0.466
		c0.226-0.028,0.396,0.127,0.509,0.466c0.17,0.624,0.225,1.146,0.17,1.572c-0.057,0.424-0.17,0.863-0.34,1.316
		c1.698-0.963,3.17-1.754,4.415-2.378c1.245-0.623,2.263-0.68,3.057-0.169c0.282,0.169,0.424,0.424,0.424,0.764
		c0,0.338-0.085,0.65-0.255,0.934c-0.227,0.678-0.453,1.303-0.678,1.868c-0.228,0.566-0.37,1.047-0.425,1.442
		c-0.057,0.396,0.014,0.68,0.211,0.85c0.198,0.17,0.608,0.199,1.231,0.085c1.359-0.283,3.028-0.862,5.01-1.74
		c1.98-0.878,3.82-1.882,5.518-3.015c0.396-0.227,0.68-0.17,0.849,0.17c0.17,0.339,0.113,0.566-0.169,0.679
		c-1.868,1.303-3.765,2.393-5.689,3.269c-1.924,0.878-3.82,1.485-5.688,1.825c-1.133,0.17-1.854,0.029-2.164-0.425
		c-0.312-0.451-0.424-1.019-0.341-1.698c0.086-0.679,0.298-1.4,0.637-2.164c0.34-0.765,0.565-1.372,0.681-1.825
		c-0.116-0.34-0.51-0.396-1.189-0.17c-0.679,0.228-1.458,0.582-2.334,1.061c-0.879,0.481-1.74,1.007-2.589,1.571
		c-0.85,0.567-1.501,1.02-1.954,1.358c-0.284,0.339-0.581,0.667-0.891,0.977c-0.312,0.312-0.552,0.524-0.722,0.638
		c-0.284,0.113-0.539,0.113-0.764,0C97.022,48.048,97.022,47.765,97.25,47.31z"/>
	<path d="M117.116,49.179c-0.68-0.396-0.934-1.006-0.765-1.825c0.171-0.82,0.595-1.614,1.273-2.378
		c0.68-0.765,1.528-1.442,2.547-2.037c1.019-0.595,2.038-0.892,3.057-0.892c0.68,0,1.202,0.142,1.571,0.425
		c0.368,0.283,0.636,0.594,0.807,0.934c0.113,0.169,0.07,0.326-0.127,0.467c-0.199,0.143-0.382,0.156-0.551,0.043
		c-0.284-0.17-0.466-0.353-0.552-0.552c-0.085-0.197-0.466-0.297-1.146-0.297c-0.679,0-1.415,0.227-2.208,0.679
		c-0.793,0.454-1.485,0.976-2.081,1.57c-0.594,0.595-1.018,1.161-1.273,1.698c-0.255,0.539-0.212,0.922,0.127,1.148
		c0.509,0.113,1.159-0.015,1.953-0.383c0.792-0.367,1.626-0.82,2.505-1.358c0.877-0.538,1.726-1.117,2.546-1.741
		c0.819-0.622,1.542-1.159,2.166-1.613c0.338-0.281,0.636-0.281,0.891,0c0.255,0.284,0.297,0.51,0.126,0.68
		c-0.284,0.227-0.452,0.551-0.509,0.977c-0.057,0.424-0.014,0.878,0.127,1.359c0.141,0.481,0.409,0.92,0.806,1.315
		c0.396,0.396,0.935,0.651,1.614,0.765c0.679,0.113,1.456,0.041,2.334-0.214c0.877-0.255,1.741-0.594,2.59-1.018
		c0.849-0.425,1.613-0.948,2.293-1.571c0.679-0.621,1.16-1.275,1.443-1.953c0.113-0.34,0.34-0.382,0.679-0.126
		c0.339,0.254,0.339,0.635,0,1.146c-0.339,0.511-0.821,1.061-1.443,1.656c-0.624,0.594-1.331,1.132-2.122,1.611
		c-0.795,0.481-1.671,0.88-2.632,1.189c-0.963,0.311-1.953,0.41-2.971,0.297c-1.02-0.112-1.869-0.537-2.547-1.272
		c-0.678-0.735-1.077-1.784-1.189-3.143c-0.624,0.623-1.388,1.231-2.292,1.825c-0.905,0.595-1.825,1.118-2.759,1.571
		c-0.934,0.453-1.797,0.792-2.589,1.018C118.021,49.405,117.455,49.405,117.116,49.179z"/>
	<path d="M174.677,60.047c1.754-1.301,3.622-2.49,5.604-3.565c1.98-1.076,3.934-2.039,5.858-2.888
		c1.924-0.85,3.707-1.584,5.348-2.207c1.644-0.621,2.974-1.103,3.992-1.444c-1.643-0.903-3.565-1.824-5.772-2.758
		c-2.208-0.934-4.246-2.01-6.113-3.227c-1.868-1.218-3.383-2.632-4.542-4.246c-1.161-1.612-1.543-3.551-1.146-5.815
		c0.509-2.604,1.599-5.122,3.268-7.556c1.668-2.433,3.735-4.683,6.198-6.75c2.461-2.066,5.178-3.948,8.148-5.646
		c2.974-1.698,6.016-3.142,9.128-4.33c3.112-1.189,6.168-2.08,9.169-2.674c2.999-0.594,5.731-0.849,8.192-0.764
		s4.541,0.539,6.239,1.359s2.803,2.08,3.312,3.778c0.396,1.302,0.185,2.703-0.637,4.203c-0.821,1.501-1.994,3.014-3.523,4.542
		c-1.527,1.528-3.325,3.002-5.391,4.416c-2.066,1.415-4.146,2.688-6.239,3.82c-2.095,1.077-4.245,2.025-6.452,2.844
		c-2.207,0.822-4.245,1.373-6.113,1.656s-3.426,0.227-4.67-0.17c-1.246-0.396-1.953-1.33-2.122-2.803
		c-0.058-0.733,0.184-1.528,0.722-2.377c0.537-0.849,1.259-1.711,2.164-2.59c0.905-0.876,1.967-1.741,3.186-2.59
		c1.216-0.849,2.476-1.669,3.778-2.462c1.3-0.734,2.658-1.429,4.075-2.079c1.413-0.651,2.772-1.203,4.074-1.656
		s2.505-0.793,3.609-1.02c1.104-0.225,2.051-0.282,2.844-0.169c1.019,0.284,1.486,0.794,1.401,1.528
		c-0.086,0.736-0.383,1.247-0.892,1.529c-0.454,0.227-0.682,0.169-0.682-0.169c-0.113-0.17-0.142-0.325-0.083-0.467
		c0.056-0.141,0.141-0.268,0.255-0.382c0.112,0,0.211-0.113,0.297-0.34c0.085-0.225,0.043-0.395-0.127-0.509h-0.34l-1.188-0.17
		c-1.472,0.17-3.383,0.722-5.73,1.655c-2.349,0.934-4.683,2.08-7.004,3.439c-1.359,0.794-2.62,1.6-3.778,2.419
		c-1.161,0.821-2.152,1.614-2.973,2.377c-0.82,0.764-1.458,1.486-1.909,2.166c-0.453,0.679-0.624,1.246-0.511,1.698
		c0.057,0.963,0.58,1.612,1.571,1.953c0.989,0.34,2.292,0.382,3.904,0.127c1.614-0.255,3.468-0.764,5.562-1.528
		c2.094-0.764,4.302-1.741,6.623-2.929c2.206-1.188,4.3-2.476,6.281-3.863c1.982-1.386,3.694-2.787,5.138-4.203
		c1.443-1.414,2.519-2.787,3.227-4.117c0.708-1.329,0.919-2.533,0.636-3.608c-0.452-1.584-1.5-2.745-3.141-3.481
		c-1.643-0.734-3.65-1.104-6.026-1.104c-2.379,0-5.024,0.34-7.938,1.02c-2.916,0.678-5.874,1.627-8.872,2.844
		c-3.001,1.218-5.958,2.673-8.872,4.371c-2.916,1.698-5.535,3.566-7.855,5.604c-2.321,2.038-4.273,4.218-5.858,6.537
		c-1.584,2.321-2.547,4.699-2.886,7.131c-0.284,1.813,0,3.397,0.85,4.754c0.849,1.358,2.093,2.589,3.735,3.693
		c1.641,1.104,3.621,2.166,5.943,3.184c2.32,1.02,4.782,2.124,7.386,3.312h0.085c0.396-0.113,1.076-0.339,2.038-0.68
		c0.963-0.338,2.052-0.734,3.269-1.188c1.218-0.453,2.518-0.919,3.905-1.4c1.387-0.481,2.688-0.947,3.904-1.401
		c1.218-0.453,2.278-0.862,3.185-1.23c0.904-0.368,1.529-0.664,1.868-0.892c0-0.113,0.113-0.185,0.339-0.213s0.396,0.042,0.51,0.213
		c0.169,0.113,0.183,0.283,0.044,0.51c-0.144,0.227-0.271,0.339-0.383,0.339c-0.453,0.339-1.529,0.85-3.228,1.529
		c-1.698,0.679-3.522,1.387-5.477,2.123c-1.952,0.734-3.792,1.398-5.519,1.994c-1.727,0.594-2.873,0.977-3.438,1.146
		c2.942,1.867,4.244,3.85,3.904,5.942c-0.17,0.906-0.552,1.798-1.146,2.675c-0.594,0.878-1.289,1.74-2.08,2.589
		c-0.793,0.85-1.655,1.628-2.589,2.336c-0.936,0.708-1.826,1.345-2.675,1.909c-3.001,1.813-5.915,3.228-8.745,4.246
		s-5.349,1.753-7.555,2.207c-3,0.452-5.193,0.367-6.581-0.255c-1.386-0.623-2.122-1.571-2.208-2.844
		c-0.084-1.273,0.44-2.717,1.572-4.33C171.141,63.059,172.697,61.517,174.677,60.047z M176.884,70.914
		c2.207-0.34,4.698-1.034,7.472-2.081c2.771-1.048,5.604-2.505,8.49-4.372c1.811-1.019,3.522-2.292,5.137-3.82
		c1.613-1.528,2.561-3.027,2.845-4.5c0.169-1.02-0.1-1.967-0.808-2.845c-0.708-0.877-1.797-1.74-3.269-2.589
		c-0.849,0.34-2.136,0.836-3.861,1.485c-1.729,0.652-3.638,1.431-5.731,2.335c-2.097,0.905-4.218,1.939-6.369,3.1
		s-4.075,2.418-5.772,3.777c-1.867,1.473-3.239,2.858-4.118,4.16c-0.876,1.301-1.244,2.391-1.103,3.268
		c0.142,0.878,0.793,1.514,1.952,1.912C172.909,71.139,174.621,71.195,176.884,70.914z"/>
	<path d="M213.053,34.916c-0.114,0-0.37,0.029-0.765,0.085c-0.397,0.057-0.595-0.085-0.595-0.425c0-0.283,0.141-0.48,0.426-0.595
		c0.112-0.054,0.254-0.084,0.425-0.084c1.47-0.17,3.211-0.298,5.22-0.382c2.01-0.084,4.117-0.127,6.326-0.127
		c0.51-0.451,1.23-1.032,2.164-1.74c0.935-0.708,1.897-1.401,2.888-2.08c0.989-0.68,1.938-1.258,2.844-1.74
		c0.904-0.481,1.612-0.723,2.122-0.723c0.283,0,0.495,0.1,0.638,0.298c0.141,0.199,0.211,0.382,0.211,0.551
		c-0.114,0.624-0.593,1.388-1.441,2.292c-0.85,0.906-1.954,1.954-3.312,3.141l6.791,0.511l0.511,0.169
		c0.282,0.169,0.396,0.396,0.338,0.679c-0.056,0.17-0.311,0.255-0.762,0.255c-0.228,0-0.425-0.028-0.594-0.085
		c-1.304-0.112-2.577-0.198-3.821-0.256c-1.247-0.055-2.52-0.084-3.822-0.084c-1.923,1.585-3.877,3.099-5.858,4.542
		c-1.981,1.443-4.046,2.703-6.196,3.778c-0.396,0.453-0.764,1.063-1.104,1.825s-0.511,1.372-0.511,1.825
		c0.057,0.679,0.522,1.09,1.401,1.23c0.877,0.142,1.98,0.128,3.312-0.041c1.328-0.171,2.787-0.495,4.372-0.977
		c1.583-0.48,3.113-0.976,4.583-1.486c1.472-0.51,2.773-1.032,3.906-1.57c1.132-0.54,1.923-0.977,2.378-1.317
		c0.452-0.282,0.792-0.282,1.018,0c0.228,0.283,0.113,0.566-0.338,0.849c-0.68,0.566-1.897,1.231-3.652,1.995
		c-1.754,0.763-3.65,1.473-5.688,2.123c-2.039,0.651-4.032,1.146-5.985,1.485c-1.953,0.34-3.469,0.34-4.542,0
		c-0.624-0.112-1.119-0.353-1.486-0.722c-0.369-0.368-0.552-0.863-0.552-1.486c0-0.339,0.043-0.707,0.128-1.104
		c0.085-0.396,0.267-0.819,0.55-1.273l0.172-0.171l-1.529,0.681c-0.114,0.114-0.255,0.143-0.424,0.086
		c-0.171-0.056-0.255-0.141-0.255-0.255c-0.115-0.227-0.058-0.454,0.169-0.681l3.227-1.866c0.679-0.963,1.57-2.052,2.673-3.269
		c1.105-1.217,2.478-2.618,4.118-4.203c-1.812,0-3.538,0.014-5.179,0.042C215.909,34.647,214.41,34.745,213.053,34.916z
		 M218.062,41.028c1.979-1.359,3.735-2.56,5.263-3.609c1.529-1.046,2.857-1.995,3.992-2.844h-2.889
		c-0.508,0.454-1.244,1.133-2.206,2.038C221.258,37.519,219.872,38.99,218.062,41.028z M233.088,28.632
		c-0.793,0.339-1.825,0.892-3.098,1.655c-1.274,0.764-2.732,1.798-4.373,3.098h3.057c0.963-0.849,1.91-1.726,2.843-2.631
		c0.936-0.905,1.627-1.668,2.08-2.292L233.088,28.632z"/>
	<path d="M232.918,47.99c-0.68-0.565-0.965-1.23-0.85-1.994c0.112-0.765,0.453-1.501,1.02-2.208c0.563-0.707,1.244-1.344,2.036-1.91
		c0.794-0.564,1.501-0.963,2.123-1.189c0.114-0.054,0.298-0.084,0.552-0.084s0.383,0.084,0.383,0.254
		c0.112,0.228,0.055,0.455-0.172,0.68c-0.453,0.398-1.031,0.864-1.739,1.401c-0.708,0.538-1.401,1.032-2.079,1.486
		c-0.681,0.849-0.907,1.611-0.681,2.291c0.17,0.511,0.681,0.765,1.529,0.765c0.85,0,1.782-0.255,2.802-0.765
		c-0.624-0.565-0.892-1.273-0.808-2.122c0.087-0.85,0.368-1.669,0.85-2.462c0.48-0.791,1.09-1.471,1.825-2.038
		c0.735-0.565,1.414-0.82,2.039-0.763c0.168,0,0.309,0.014,0.423,0.042c0.112,0.029,0.255,0.127,0.426,0.297
		c0.338,0.453,0.437,1.019,0.296,1.699c-0.141,0.68-0.395,1.358-0.763,2.037c-0.369,0.678-0.778,1.303-1.231,1.867
		c-0.453,0.567-0.795,0.906-1.019,1.019c0.565,0.114,1.344,0.044,2.335-0.211c0.99-0.255,2.009-0.566,3.058-0.935
		c1.044-0.368,2.05-0.777,3.013-1.231c0.961-0.452,1.669-0.849,2.123-1.188c0.452,0,0.679,0.114,0.679,0.34
		c0.113,0.227,0.057,0.453-0.17,0.679c-0.566,0.396-1.358,0.835-2.377,1.315c-1.02,0.481-2.11,0.921-3.268,1.316
		c-1.162,0.397-2.321,0.694-3.482,0.893c-1.159,0.198-2.136,0.213-2.929,0.043c-1.472,0.963-2.716,1.415-3.734,1.357
		C234.106,48.614,233.37,48.386,232.918,47.99z M241.578,40.349c-0.397-0.056-0.85,0.156-1.36,0.637
		c-0.509,0.48-0.947,1.033-1.315,1.655c-0.369,0.623-0.608,1.26-0.721,1.911c-0.116,0.65,0.055,1.117,0.51,1.399
		c0.451-0.396,0.904-0.892,1.358-1.486c0.451-0.594,0.834-1.187,1.146-1.782c0.312-0.594,0.511-1.115,0.594-1.571
		C241.875,40.661,241.803,40.406,241.578,40.349z"/>
	<path d="M221.541,73.291c0-0.794,0.397-1.685,1.188-2.674c0.795-0.991,1.825-2.011,3.1-3.057c1.272-1.047,2.661-2.094,4.158-3.142
		c1.501-1.045,2.973-2.022,4.416-2.929c1.442-0.904,2.731-1.725,3.862-2.461c1.134-0.736,1.952-1.303,2.462-1.698l2.547-1.699
		c2.039-2.377,3.622-4.441,4.755-6.197c1.132-1.753,2.037-3.366,2.718-4.839l0.51-1.188c-0.454,0.339-0.991,0.678-1.614,1.019
		c-0.623,0.34-0.991,0.566-1.104,0.68c-0.17,0.114-0.354,0.185-0.551,0.211c-0.2,0.03-0.354-0.042-0.469-0.211
		c-0.168-0.34-0.113-0.565,0.171-0.68c0.17-0.055,0.466-0.213,0.893-0.467c0.423-0.255,0.849-0.537,1.271-0.849
		c0.426-0.311,0.821-0.623,1.188-0.936c0.37-0.31,0.609-0.579,0.724-0.806c0.168-0.283,0.408-0.396,0.722-0.34
		c0.31,0.057,0.409,0.227,0.297,0.51c-0.338,1.133-0.893,2.646-1.654,4.543c-0.765,1.896-2.251,4.344-4.46,7.344
		c4.416-2.66,8.123-4.883,11.123-6.665c2.999-1.782,5.52-3.354,7.557-4.712c0.451,0,0.734,0.056,0.849,0.17
		c0.17,0.339,0.057,0.622-0.338,0.849c-1.076,0.679-2.223,1.388-3.44,2.122c-1.218,0.736-2.646,1.601-4.288,2.59
		c-1.642,0.991-3.564,2.151-5.772,3.48c-2.207,1.331-4.783,2.901-7.726,4.713l-1.529,1.697c-0.509,0.623-1.019,1.161-1.528,1.614
		c-0.511,0.453-1.019,0.989-1.528,1.611c-2.151,2.153-4.217,4.176-6.197,6.072c-1.98,1.894-3.82,3.491-5.519,4.795
		c-0.794,0.622-1.541,1.159-2.249,1.612c-0.708,0.454-1.317,0.766-1.826,0.936c-0.621,0.169-1.188,0.239-1.698,0.212
		c-0.51-0.029-0.849-0.381-1.018-1.061L221.541,73.291L221.541,73.291z M227.656,70.745c1.698-1.189,3.536-2.718,5.518-4.586
		c1.982-1.867,3.989-3.905,6.028-6.112l1.358-1.189c-1.528,0.964-3.312,2.123-5.348,3.481c-2.039,1.358-3.977,2.731-5.817,4.117
		c-1.839,1.386-3.396,2.687-4.669,3.905c-1.274,1.216-1.938,2.136-1.996,2.759c0.058,0.282,0.299,0.354,0.723,0.213
		c0.426-0.143,0.922-0.383,1.486-0.723c0.565-0.339,1.104-0.693,1.613-1.062C227.06,71.181,227.429,70.914,227.656,70.745z
		 M253.633,39.33c-0.282-0.283-0.338-0.511-0.168-0.681c0-0.283,0.069-0.509,0.212-0.679c0.141-0.17,0.296-0.396,0.467-0.68
		c0-0.169,0.028-0.325,0.084-0.467c0.057-0.141,0.087-0.268,0.087-0.382l0.168-0.339v-0.169c0-0.169,0.057-0.325,0.171-0.467
		c0.112-0.141,0.226-0.212,0.339-0.212c0.283,0,0.438,0.071,0.467,0.212c0.028,0.142,0.044,0.298,0.044,0.467v0.849l-0.34,0.849
		c-0.17,0.285-0.298,0.539-0.382,0.764c-0.087,0.227-0.186,0.424-0.299,0.594C254.368,39.218,254.086,39.33,253.633,39.33z"/>
	<path d="M260.764,49.179c-0.679-0.396-0.934-1.006-0.764-1.825c0.171-0.82,0.594-1.614,1.275-2.378
		c0.678-0.765,1.526-1.442,2.546-2.037s2.037-0.892,3.057-0.892c0.679,0,1.285,0.142,1.825,0.425c0.536,0.283,0.89,0.594,1.06,0.934
		c0.112,0.169,0.072,0.326-0.126,0.467c-0.198,0.143-0.383,0.156-0.552,0.043c-0.284-0.17-0.553-0.353-0.808-0.552
		c-0.255-0.197-0.721-0.297-1.399-0.297c-0.681,0-1.416,0.227-2.206,0.679c-0.794,0.454-1.486,0.976-2.081,1.57
		c-0.595,0.596-1.02,1.161-1.274,1.698c-0.253,0.539-0.212,0.922,0.128,1.148c0.51,0.113,1.188-0.015,2.037-0.383
		c0.85-0.367,1.74-0.82,2.675-1.358s1.839-1.117,2.716-1.741c0.877-0.622,1.627-1.159,2.251-1.613
		c0.564-0.451,0.946-0.509,1.146-0.169c0.199,0.339,0.155,0.623-0.126,0.849c-0.736,0.511-1.231,1.146-1.486,1.911
		c-0.255,0.764-0.186,1.229,0.213,1.401c0.396,0.168,1.045,0.07,1.952-0.299c0.905-0.368,1.839-0.807,2.802-1.316
		s1.868-1.019,2.717-1.528c0.85-0.51,1.386-0.849,1.612-1.019c0.341-0.17,0.609-0.086,0.809,0.255
		c0.195,0.339,0.154,0.594-0.128,0.764c-0.397,0.227-1.02,0.608-1.869,1.146c-0.849,0.54-1.769,1.062-2.758,1.571
		c-0.991,0.51-1.983,0.935-2.973,1.274c-0.991,0.338-1.797,0.424-2.419,0.255c-0.624-0.171-1.006-0.538-1.146-1.104
		c-0.143-0.566-0.073-1.105,0.211-1.614c-0.623,0.453-1.358,0.948-2.206,1.486c-0.85,0.538-1.729,1.006-2.631,1.4
		c-0.907,0.396-1.729,0.693-2.463,0.892C261.642,49.421,261.104,49.405,260.764,49.179z"/>
	<path d="M278.763,47.31c0.172-0.17,0.342-0.34,0.512-0.511c0.17-0.168,0.338-0.395,0.51-0.679c0.622-0.51,1.061-1.005,1.315-1.486
		c0.256-0.479,0.439-0.946,0.553-1.4v-0.169l-0.171,0.169c-0.114,0.114-0.198,0.17-0.255,0.17c-0.058,0-0.143,0.058-0.255,0.17
		c-0.453,0.283-0.905,0.565-1.359,0.85c-0.453,0.283-0.85,0.51-1.188,0.679c-0.339,0.17-0.624,0.058-0.849-0.339
		c-0.228-0.226-0.115-0.451,0.338-0.681c0.341-0.169,0.734-0.367,1.19-0.594c0.452-0.226,0.849-0.479,1.188-0.763
		c0.112-0.113,0.195-0.184,0.254-0.214c0.055-0.026,0.141-0.097,0.255-0.211c0.113-0.056,0.226-0.141,0.34-0.255l0.509-0.51v-0.171
		c0.114-0.282,0.282-0.438,0.509-0.466c0.228-0.028,0.396,0.127,0.511,0.466c0.171,0.625,0.227,1.146,0.171,1.571
		c-0.059,0.426-0.171,0.864-0.34,1.316c1.13-0.734,2.208-1.343,3.226-1.824c1.02-0.48,1.909-0.806,2.674-0.976
		c0.766-0.171,1.359-0.128,1.783,0.126c0.424,0.255,0.636,0.752,0.636,1.486c0,1.246,0.185,2.448,0.553,3.608
		s0.962,2.164,1.783,3.014c0.82,0.85,1.896,1.473,3.227,1.868c1.33,0.396,2.984,0.453,4.967,0.17c0.679-0.056,1.5-0.227,2.462-0.511
		c0.962-0.282,1.938-0.637,2.93-1.061c0.989-0.425,1.938-0.904,2.843-1.444c0.904-0.537,1.67-1.115,2.292-1.74
		c0.396-0.226,0.68-0.17,0.849,0.17c0.114,0.17,0.156,0.284,0.128,0.341c-0.028,0.056-0.128,0.168-0.298,0.338
		c-0.68,0.68-1.516,1.302-2.505,1.867c-0.99,0.567-2.01,1.062-3.056,1.486c-1.048,0.424-2.095,0.795-3.141,1.104
		c-1.049,0.312-1.94,0.522-2.675,0.635c-2.435,0.342-4.414,0.171-5.943-0.508c-1.527-0.68-2.717-1.584-3.566-2.718
		c-0.849-1.131-1.43-2.347-1.739-3.65c-0.313-1.301-0.469-2.405-0.469-3.311c-0.622-0.057-1.344,0.057-2.165,0.339
		c-0.821,0.284-1.627,0.638-2.419,1.062c-0.792,0.425-1.558,0.892-2.292,1.4c-0.735,0.51-1.33,0.934-1.782,1.273
		c-0.285,0.339-0.54,0.652-0.765,0.936c-0.227,0.283-0.425,0.424-0.594,0.424c-0.339,0.339-0.623,0.368-0.85,0.085
		C278.367,47.963,278.424,47.65,278.763,47.31z"/>
</g>
<g>
	<path d="M158.894,50.643c-1.483-2.117-4.836-6.813-4.628-9.917c0.355-5.321,4.84-2.156,5.688,0.597
		c1.483-3.601,6.99-5.295,6.566-0.212C166.308,44.501,161.012,48.737,158.894,50.643z"/>
</g>
</svg>
