<?xml version="1.0" encoding="utf-8"?>
<!-- Generator: Adobe Illustrator 16.0.0, SVG Export Plug-In . SVG Version: 6.00 Build 0)  -->
<!DOCTYPE svg PUBLIC "-//W3C//DTD SVG 1.1//EN" "http://www.w3.org/Graphics/SVG/1.1/DTD/svg11.dtd">
<svg version="1.1" id="Layer_1" xmlns="http://www.w3.org/2000/svg" xmlns:xlink="http://www.w3.org/1999/xlink" x="0px" y="0px"
	 width="470.302px" height="135px" viewBox="0 0 470.302 135" style="enable-background:new 0 0 470.302 135;" xml:space="preserve"
	>
<g>
	<path style="fill:#92793D;" d="M56.736,119.641h11.672c0.443,0,0.591,2.955,0.591,3.398c0,0.591-0.147,1.034-0.591,1.034H15.366
		c-0.443,0-0.591-1.478-0.591-2.068c0-0.443,0.148-2.216,0.591-2.364h11.82V25.819l-17.73,5.467
		c-0.443,0.148-0.591-1.034-0.591-2.216c0-1.034,0.147-2.068,0.591-2.216l44.03-14.036c1.034-0.295,3.25-0.591,3.25,0.443V119.641z"
		/>
	<path style="fill:#92793D;" d="M149.52,75.759c-5.614,7.535-13.741,10.786-22.458,10.786c-25.708,0-39.449-18.026-39.449-36.199
		c0-23.197,20.39-37.233,41.666-37.233c23.049,0,46.985,16.548,46.985,55.85c0,28.22-15.662,56.588-49.497,56.588
		c-21.276,0-31.175-10.343-31.175-19.799c0-10.638,7.535-15.809,15.07-15.809c7.24,0,14.479,4.875,14.479,14.627
		c0,5.614-2.364,12.559-11.376,14.479c3.989,1.921,9.899,2.512,12.707,2.512c20.39,0,26.004-30.585,24.674-45.803H149.52z
		 M146.565,35.718c0-12.263-6.944-18.469-14.037-18.469c-6.944,0-14.036,6.058-14.036,18.321v28.221
		c0,11.82,7.092,17.73,14.036,17.73c7.092,0,14.037-5.911,14.037-17.73V35.718z"/>
</g>
<g>
	<path style="fill:#1A171B;" d="M311.359,13.207v72.775h-2.08V17.677L276.115,75.69h-1.248l-33.165-57.805v68.097h-2.08V13.207
		h1.768l34.101,59.676l34.101-59.676H311.359z"/>
	<path style="fill:#1A171B;" d="M390.267,64.046H345.77l-10.188,21.937h-2.392l33.788-72.775h2.08l33.789,72.775h-2.392
		L390.267,64.046z M389.332,62.07l-21.313-46.056L346.706,62.07H389.332z"/>
	<path style="fill:#1A171B;" d="M422.546,83.539c-3.223-1.836-5.806-4.349-7.745-7.537l1.456-1.248
		c2.009,3.05,4.452,5.406,7.329,7.07c2.875,1.663,6.012,2.494,9.409,2.494c5.336,0,9.287-1.541,11.852-4.626
		c2.563-3.083,3.847-7.779,3.847-14.087V15.182h-27.239v-1.975h29.318v52.606c0,13.655-5.961,20.482-17.882,20.482
		C429.216,86.295,425.769,85.377,422.546,83.539z"/>
</g>
<g>
	<path style="fill:#1A171B;stroke:#1A171B;stroke-width:0.25;stroke-miterlimit:10;" d="M241.794,127.232
		c-1.935-1.084-3.457-2.576-4.565-4.477c-1.109-1.898-1.663-4.027-1.663-6.387s0.554-4.488,1.663-6.389
		c1.109-1.898,2.63-3.391,4.565-4.477c1.934-1.084,4.093-1.627,6.476-1.627c1.675,0,3.238,0.265,4.689,0.795
		c1.451,0.531,2.695,1.316,3.734,2.354l-0.425,0.496c-2.076-1.982-4.742-2.973-7.998-2.973c-2.242,0-4.276,0.52-6.104,1.557
		c-1.829,1.039-3.268,2.46-4.317,4.265c-1.05,1.805-1.575,3.804-1.575,5.999c0,2.193,0.525,4.193,1.575,5.998
		c1.049,1.805,2.489,3.227,4.317,4.264c1.828,1.039,3.863,1.558,6.104,1.558c3.232,0,5.898-1.003,7.998-3.008l0.425,0.495
		c-1.039,1.039-2.289,1.829-3.751,2.371c-1.463,0.543-3.02,0.814-4.671,0.814C245.887,128.861,243.729,128.318,241.794,127.232z"/>
	<path style="fill:#1A171B;stroke:#1A171B;stroke-width:0.25;stroke-miterlimit:10;" d="M292.011,121.287h-15.146l-3.468,7.468
		h-0.813l11.501-24.772h0.708l11.502,24.772h-0.814L292.011,121.287z M291.693,120.615l-7.254-15.678l-7.256,15.678H291.693z"/>
	<path style="fill:#1A171B;stroke:#1A171B;stroke-width:0.25;stroke-miterlimit:10;" d="M316.111,103.982h17.023v0.672H316.82
		v10.086h8.812c2.878,0,5.065,0.584,6.564,1.752c1.498,1.168,2.247,2.885,2.247,5.149c0,2.336-0.778,4.104-2.336,5.309
		c-1.557,1.203-3.846,1.805-6.865,1.805h-9.131V103.982z M325.383,128.082c2.761,0,4.843-0.536,6.247-1.609
		c1.402-1.074,2.105-2.672,2.105-4.795c0-2.1-0.69-3.669-2.07-4.707c-1.381-1.039-3.475-1.558-6.282-1.558h-8.563v12.669H325.383z"
		/>
	<path style="fill:#1A171B;stroke:#1A171B;stroke-width:0.25;stroke-miterlimit:10;" d="M359.499,127.232
		c-1.935-1.084-3.456-2.576-4.565-4.477c-1.109-1.898-1.663-4.027-1.663-6.387s0.554-4.488,1.663-6.389
		c1.109-1.898,2.631-3.391,4.565-4.477c1.935-1.084,4.093-1.627,6.476-1.627s4.542,0.543,6.477,1.627
		c1.935,1.086,3.456,2.578,4.565,4.477c1.108,1.9,1.663,4.029,1.663,6.389s-0.555,4.488-1.663,6.387
		c-1.109,1.9-2.631,3.393-4.565,4.477c-1.935,1.086-4.094,1.629-6.477,1.629S361.433,128.318,359.499,127.232z M372.08,126.649
		c1.828-1.026,3.268-2.442,4.317-4.247s1.575-3.816,1.575-6.033c0-2.218-0.525-4.229-1.575-6.034
		c-1.05-1.806-2.489-3.221-4.317-4.247c-1.828-1.025-3.863-1.539-6.105-1.539c-2.241,0-4.275,0.514-6.104,1.539
		c-1.829,1.026-3.269,2.441-4.318,4.247c-1.05,1.805-1.574,3.816-1.574,6.034c0,2.217,0.524,4.229,1.574,6.033
		s2.489,3.221,4.318,4.247c1.828,1.026,3.862,1.539,6.104,1.539C368.216,128.188,370.251,127.676,372.08,126.649z"/>
	<path style="fill:#1A171B;stroke:#1A171B;stroke-width:0.25;stroke-miterlimit:10;" d="M414.352,104.654h-9.202v24.101h-0.707
		v-24.101h-9.201v-0.672h19.11V104.654z"/>
	<path style="fill:#1A171B;stroke:#1A171B;stroke-width:0.25;stroke-miterlimit:10;" d="M447.794,121.287h-15.146l-3.468,7.468
		h-0.813l11.501-24.772h0.708l11.502,24.772h-0.814L447.794,121.287z M447.476,120.615l-7.254-15.678l-7.256,15.678H447.476z"/>
</g>
<g>
	<g>
		<path style="fill:#92793D;stroke:#92793D;stroke-width:0.25;stroke-miterlimit:10;" d="M193.382,14.363h-8.084v19.171h-0.77
			V14.363h-8.084v-0.731h16.938V14.363z"/>
		<path style="fill:#92793D;stroke:#92793D;stroke-width:0.25;stroke-miterlimit:10;" d="M197.731,13.632h0.77v18.594l15.553-18.594
			h0.616v19.903h-0.77V14.941l-15.552,18.594h-0.616V13.632z"/>
	</g>
</g>
</svg>
