<?xml version="1.0" encoding="utf-8"?>
<!-- Generator: Adobe Illustrator 16.0.0, SVG Export Plug-In . SVG Version: 6.00 Build 0)  -->
<!DOCTYPE svg PUBLIC "-//W3C//DTD SVG 1.1//EN" "http://www.w3.org/Graphics/SVG/1.1/DTD/svg11.dtd">
<svg version="1.1" id="Layer_1" xmlns="http://www.w3.org/2000/svg" xmlns:xlink="http://www.w3.org/1999/xlink" x="0px" y="0px"
	 width="512.722px" height="143px" viewBox="0 0 512.722 143" style="enable-background:new 0 0 512.722 143;" xml:space="preserve"
	>
<g>
	<g>
		<path style="fill:#92793D;" d="M56.736,127.471h11.672c0.443,0,0.591,2.955,0.591,3.398c0,0.591-0.147,1.034-0.591,1.034H15.366
			c-0.443,0-0.591-1.478-0.591-2.068c0-0.443,0.148-2.216,0.591-2.364h11.82V33.648l-17.73,5.467
			c-0.443,0.148-0.591-1.033-0.591-2.216c0-1.034,0.147-2.068,0.591-2.216l44.03-14.037c1.034-0.295,3.25-0.59,3.25,0.443V127.471z"
			/>
		<path style="fill:#92793D;" d="M149.52,83.589c-5.614,7.535-13.741,10.786-22.458,10.786c-25.708,0-39.449-18.025-39.449-36.199
			c0-23.197,20.39-37.233,41.666-37.233c23.049,0,46.985,16.548,46.985,55.851c0,28.22-15.662,56.588-49.497,56.588
			c-21.276,0-31.175-10.343-31.175-19.799c0-10.638,7.535-15.809,15.07-15.809c7.24,0,14.479,4.875,14.479,14.627
			c0,5.614-2.364,12.559-11.376,14.479c3.989,1.921,9.899,2.512,12.707,2.512c20.39,0,26.004-30.585,24.674-45.803H149.52z
			 M146.565,43.549c0-12.264-6.944-18.469-14.037-18.469c-6.944,0-14.036,6.057-14.036,18.32v28.221
			c0,11.82,7.092,17.73,14.036,17.73c7.092,0,14.037-5.91,14.037-17.73V43.549z"/>
	</g>
	<g>
		<path style="fill:#1A171B;" d="M311.359,21.037v72.775h-2.08V25.508L276.115,83.52h-1.248l-33.165-57.805v68.098h-2.08V21.037
			h1.768l34.102,59.676l34.1-59.676H311.359z"/>
		<path style="fill:#1A171B;" d="M390.267,71.876h-44.496l-10.189,21.937h-2.391l33.787-72.775h2.08l33.789,72.775h-2.391
			L390.267,71.876z M389.332,69.9l-21.313-46.057L346.707,69.9H389.332z"/>
		<path style="fill:#1A171B;" d="M424.677,21.037h2.08v68.824l53.75-68.824h1.559v72.775h-2.078V24.988l-53.75,68.824h-1.561V21.037
			z M442.404,12.096c-2.877-2.147-4.35-4.99-4.418-8.525h2.184c0.068,2.981,1.314,5.373,3.742,7.174
			c2.426,1.803,5.475,2.703,9.148,2.703c3.604,0,6.619-0.9,9.045-2.703c2.426-1.801,3.674-4.192,3.744-7.174h2.182
			c-0.068,3.535-1.525,6.378-4.365,8.525c-2.844,2.149-6.379,3.223-10.605,3.223C448.832,15.318,445.279,14.245,442.404,12.096z"/>
	</g>
	<g>
		<path style="fill:#1A171B;stroke:#1A171B;stroke-width:0.25;stroke-miterlimit:10;" d="M241.794,135.063
			c-1.935-1.084-3.457-2.576-4.565-4.477c-1.109-1.898-1.663-4.027-1.663-6.387s0.554-4.488,1.663-6.389
			c1.109-1.898,2.63-3.391,4.565-4.477c1.934-1.084,4.093-1.627,6.477-1.627c1.674,0,3.238,0.265,4.688,0.795
			c1.451,0.531,2.695,1.316,3.733,2.354l-0.424,0.496c-2.076-1.982-4.742-2.973-7.998-2.973c-2.242,0-4.277,0.52-6.105,1.557
			c-1.829,1.039-3.268,2.46-4.317,4.265c-1.05,1.805-1.575,3.804-1.575,5.999c0,2.193,0.525,4.193,1.575,5.998
			c1.049,1.805,2.489,3.227,4.317,4.264c1.828,1.039,3.863,1.558,6.105,1.558c3.231,0,5.897-1.003,7.998-3.008l0.424,0.495
			c-1.038,1.039-2.288,1.829-3.751,2.371c-1.463,0.543-3.021,0.814-4.671,0.814C245.887,136.691,243.728,136.148,241.794,135.063z"
			/>
		<path style="fill:#1A171B;stroke:#1A171B;stroke-width:0.25;stroke-miterlimit:10;" d="M301.796,123.084
			c1.498,1.286,2.248,3.18,2.248,5.68c0,2.572-0.779,4.519-2.336,5.84s-3.846,1.981-6.865,1.981h-8.988v-24.101h-8.141v-0.672h8.848
			v9.343h8.67C298.111,121.155,300.298,121.799,301.796,123.084z M301.23,134.125c1.404-1.19,2.105-2.967,2.105-5.326
			c0-4.646-2.783-6.971-8.352-6.971h-8.422v14.084h8.422C297.746,135.912,299.828,135.316,301.23,134.125z"/>
		<path style="fill:#1A171B;stroke:#1A171B;stroke-width:0.25;stroke-miterlimit:10;" d="M330.232,111.813h17.021v0.672h-16.314
			v10.086h8.813c2.879,0,5.066,0.584,6.564,1.752s2.248,2.885,2.248,5.149c0,2.336-0.779,4.104-2.336,5.309
			c-1.557,1.203-3.846,1.805-6.865,1.805h-9.131V111.813z M339.503,135.912c2.762,0,4.842-0.536,6.246-1.609
			c1.404-1.074,2.105-2.672,2.105-4.795c0-2.1-0.689-3.669-2.07-4.707c-1.379-1.039-3.473-1.558-6.281-1.558h-8.564v12.669H339.503z
			"/>
		<path style="fill:#1A171B;stroke:#1A171B;stroke-width:0.25;stroke-miterlimit:10;" d="M378.927,135.063
			c-1.936-1.084-3.457-2.576-4.566-4.477c-1.107-1.898-1.662-4.027-1.662-6.387s0.555-4.488,1.662-6.389
			c1.109-1.898,2.631-3.391,4.566-4.477c1.934-1.084,4.092-1.627,6.477-1.627c2.383,0,4.541,0.543,6.477,1.627
			c1.934,1.086,3.455,2.578,4.564,4.477c1.109,1.9,1.664,4.029,1.664,6.389s-0.555,4.488-1.664,6.387
			c-1.109,1.9-2.631,3.393-4.564,4.477c-1.936,1.086-4.094,1.629-6.477,1.629C383.019,136.691,380.861,136.148,378.927,135.063z
			 M391.507,134.479c1.828-1.026,3.268-2.442,4.318-4.247c1.049-1.805,1.574-3.816,1.574-6.033c0-2.218-0.525-4.229-1.574-6.034
			c-1.051-1.806-2.49-3.221-4.318-4.247c-1.828-1.025-3.863-1.539-6.104-1.539c-2.242,0-4.277,0.514-6.105,1.539
			c-1.828,1.026-3.268,2.441-4.316,4.247c-1.051,1.805-1.576,3.816-1.576,6.034c0,2.217,0.525,4.229,1.576,6.033
			c1.049,1.805,2.488,3.221,4.316,4.247s3.863,1.539,6.105,1.539C387.644,136.019,389.679,135.506,391.507,134.479z"/>
		<path style="fill:#1A171B;stroke:#1A171B;stroke-width:0.25;stroke-miterlimit:10;" d="M439.089,112.484h-9.201v24.101h-0.709
			v-24.101h-9.201v-0.672h19.111V112.484z"/>
		<path style="fill:#1A171B;stroke:#1A171B;stroke-width:0.25;stroke-miterlimit:10;" d="M477.841,129.117h-15.146l-3.469,7.468
			h-0.814l11.502-24.772h0.707l11.502,24.772h-0.814L477.841,129.117z M477.523,128.445l-7.256-15.678l-7.254,15.678H477.523z"/>
	</g>
	<g>
		<path style="fill:#92793D;stroke:#92793D;stroke-width:0.25;stroke-miterlimit:10;" d="M193.42,22.109h-8.084v19.172h-0.77V22.109
			h-8.084v-0.731h16.938V22.109z"/>
		<path style="fill:#92793D;stroke:#92793D;stroke-width:0.25;stroke-miterlimit:10;" d="M197.77,21.378h0.77v18.594l15.553-18.594
			h0.616v19.903h-0.77V22.688l-15.552,18.594h-0.616V21.378z"/>
	</g>
</g>
</svg>
