<?xml version="1.0" encoding="utf-8"?>
<!-- Generator: Adobe Illustrator 16.0.0, SVG Export Plug-In . SVG Version: 6.00 Build 0)  -->
<!DOCTYPE svg PUBLIC "-//W3C//DTD SVG 1.1//EN" "http://www.w3.org/Graphics/SVG/1.1/DTD/svg11.dtd">
<svg version="1.1" id="Layer_1" xmlns="http://www.w3.org/2000/svg" xmlns:xlink="http://www.w3.org/1999/xlink" x="0px" y="0px"
	 width="34.131px" height="33.025px" viewBox="0 0 34.131 33.025" style="enable-background:new 0 0 34.131 33.025;"
	 xml:space="preserve">
<g>
	<g>
		<path style="fill:#1A171B;" d="M17.056,33.025c-0.115,0-0.225-0.053-0.295-0.145L0.079,11.54
			c-0.088-0.112-0.104-0.266-0.041-0.395s0.193-0.211,0.337-0.211h33.362c0.143,0,0.273,0.082,0.336,0.211
			c0.063,0.129,0.047,0.282-0.041,0.395L17.351,32.881C17.28,32.973,17.171,33.025,17.056,33.025z M1.144,11.685l15.912,20.356
			l15.912-20.356H1.144z"/>
	</g>
	<g>
		<g>
			<path style="fill:#1A171B;" d="M17.074,11.685c-0.007-0.001-0.013-0.001-0.019,0H0.375c-0.143,0-0.272-0.081-0.336-0.209
				s-0.049-0.28,0.038-0.394l8.34-10.935c0.143-0.186,0.455-0.186,0.598,0l8.283,10.86c0.092,0.068,0.151,0.178,0.151,0.302
				C17.449,11.517,17.282,11.685,17.074,11.685z M1.133,10.935h15.165L8.716,0.993L1.133,10.935z"/>
		</g>
		<g>
			<path style="fill:#1A171B;" d="M33.755,11.685c-0.006-0.001-0.012-0.001-0.018,0H17.056c-0.143,0-0.273-0.081-0.336-0.209
				c-0.063-0.128-0.049-0.28,0.037-0.394l8.342-10.935c0.143-0.186,0.453-0.186,0.596,0l8.284,10.86
				c0.093,0.068,0.151,0.178,0.151,0.302C34.13,11.517,33.963,11.685,33.755,11.685z M17.813,10.935h15.166l-7.583-9.941
				L17.813,10.935z"/>
		</g>
	</g>
	<g>
		<path style="fill:#1A171B;" d="M8.716,11.685c-0.207,0-0.375-0.168-0.375-0.375V0.375C8.341,0.168,8.509,0,8.716,0
			s0.375,0.168,0.375,0.375V11.31C9.091,11.517,8.923,11.685,8.716,11.685z"/>
	</g>
	<g>
		<path style="fill:#1A171B;" d="M25.396,11.685c-0.207,0-0.375-0.168-0.375-0.375V0.375C25.021,0.168,25.189,0,25.396,0
			s0.375,0.168,0.375,0.375V11.31C25.771,11.517,25.604,11.685,25.396,11.685z"/>
	</g>
	<g>
		<path style="fill:#1A171B;" d="M17.091,22.621c-0.117,0-0.227-0.055-0.298-0.147L8.441,11.537
			c-0.087-0.113-0.102-0.266-0.038-0.394c0.063-0.128,0.193-0.209,0.336-0.209h16.703c0.143,0,0.273,0.081,0.336,0.209
			c0.064,0.128,0.049,0.28-0.037,0.394l-8.353,10.937C17.317,22.566,17.208,22.621,17.091,22.621z M9.497,11.685l7.594,9.943
			l7.594-9.943H9.497z"/>
	</g>
	<g>
		<path style="fill:#1A171B;" d="M25.207,22.621c-0.006,0-0.013,0-0.019,0H8.923c-0.141,0-0.271-0.08-0.334-0.207
			c-0.064-0.126-0.051-0.278,0.033-0.392l8.133-10.937c0.143-0.191,0.461-0.191,0.602,0l8.076,10.861
			c0.092,0.068,0.149,0.177,0.149,0.299C25.582,22.453,25.415,22.621,25.207,22.621z M9.669,21.871h14.773l-7.387-9.933
			L9.669,21.871z"/>
	</g>
	<g>
		<path style="fill:#1A171B;" d="M17.056,33.025c-0.207,0-0.375-0.168-0.375-0.375V22.246c0-0.207,0.168-0.375,0.375-0.375
			s0.375,0.168,0.375,0.375V32.65C17.431,32.857,17.263,33.025,17.056,33.025z"/>
	</g>
</g>
</svg>
